<svg xmlns="http://www.w3.org/2000/svg" xmlns:xlink="http://www.w3.org/1999/xlink" id="Layer_1" width="406" height="306" class="illustration styles_illustrationTablet__1DWOa" data-name="Layer 1" viewBox="0 0 400 300"><defs><linearGradient id="linear-gradient" x1="100.93" x2="112.33" y1="145.42" y2="139.89" gradientUnits="userSpaceOnUse"><stop offset="0" stop-color="#fff" stop-opacity="0"/><stop offset="1" stop-color="#d43500"/></linearGradient><linearGradient id="linear-gradient-2" x1="160.01" x2="175.78" y1="231.24" y2="208.81" xlink:href="#linear-gradient"/><linearGradient id="linear-gradient-3" x1="43.73" x2="64.5" y1="205.93" y2="176.39" xlink:href="#linear-gradient"/><linearGradient id="linear-gradient-4" x1="274.88" x2="295.99" y1="241.16" y2="211.13" gradientTransform="matrix(1, 0, 0, 1, -0.35, 0.46)" xlink:href="#linear-gradient"/><linearGradient id="linear-gradient-5" x1="208.13" x2="228.44" y1="181.67" y2="152.78" xlink:href="#linear-gradient"/></defs><title>-</title><polygon fill="#efddd8" points="22.61 167.45 216.64 278.46 359.46 196.66 165.14 82.77 22.61 167.45"/><polyline fill="url(#linear-gradient)" points="147.53 134.32 96.42 162.43 68.93 146.66 121.19 120.77" opacity=".32"/><polyline fill="url(#linear-gradient-2)" points="211.11 208.93 160.1 241.84 130.88 222.31 183.15 196.42" opacity=".32"/><path fill="url(#linear-gradient-3)" d="M37.23,175.76a101.48,101.48,0,0,1,10.15,5.86c5.17,3.44,12.89,6.13,17.66,10.1l37.18-21.38L52,162.25,33.19,173.33Q35.23,174.52,37.23,175.76Z" opacity=".32"/><path fill="url(#linear-gradient-4)" d="M299,204.32l-54.82,30.81,19.65,11.24,71.07-41s-11.25-5.09-18.33-5.55S299,204.32,299,204.32" opacity=".32"/><polyline fill="url(#linear-gradient-5)" points="307.09 176.24 247.47 211.26 137.46 146.86 181.88 124.86" opacity=".32"/><path fill="#365949" d="M226.29,30.08l-18.4-10.35a3.32,3.32,0,0,0-4.94,2.89l0,31.5,27.61,16.6V68.4l0-1.21V37.38A8.37,8.37,0,0,0,226.29,30.08Z"/><polyline fill="#365949" points="170.9 70.78 170.9 131.19 198.87 147.45 230.51 128.87 230.51 68.4"/><polygon points="198.87 86.5 198.87 147.45 230.51 129.42 230.51 68.4 198.87 86.5" opacity=".61"/><polygon fill="#365949" points="170.9 70.78 202.76 52.38 230.51 68.4 198.87 86.5 170.9 70.78"/><path fill="#365949" d="M178.74,82.3l12.37,7.06a4.38,4.38,0,0,1,2.21,3.81v3.27a3,3,0,0,1-4.54,2.66l-12.32-6.89a4.46,4.46,0,0,1-2.28-3.89V85A3.05,3.05,0,0,1,178.74,82.3Z"/><polygon points="170.9 70.78 202.76 52.38 230.51 68.4 198.87 86.5 170.9 70.78" opacity=".84"/><path d="M178.74,82.3l12.37,7.06a4.38,4.38,0,0,1,2.21,3.81v3.27a3,3,0,0,1-4.54,2.66l-12.32-6.89a4.46,4.46,0,0,1-2.28-3.89V85A3.05,3.05,0,0,1,178.74,82.3Z" opacity=".84"/><path fill="#ffaf1d" d="M262,52.9l-18.4-10.35a3.32,3.32,0,0,0-4.94,2.89l0,31.5,27.61,16.6V91.22l0-1.21V60.2A8.37,8.37,0,0,0,262,52.9Z"/><polyline fill="#ffaf1d" points="206.64 93.6 206.64 154.01 234.62 170.27 266.26 151.68 266.26 91.22"/><polygon fill="#e08d07" points="234.62 109.32 234.62 170.27 266.26 152.24 266.26 91.22 234.62 109.32"/><polygon fill="#563404" points="206.64 93.6 238.51 75.2 266.26 91.22 234.62 109.32 206.64 93.6"/><path fill="#563404" d="M214.48,105.12l12.37,7.06a4.38,4.38,0,0,1,2.21,3.81v3.27a3,3,0,0,1-4.54,2.66L212.2,115a4.46,4.46,0,0,1-2.28-3.89v-3.37A3.05,3.05,0,0,1,214.48,105.12Z"/><path fill="#8bd346" d="M302.87,77.45,284.47,67.1A3.32,3.32,0,0,0,279.52,70l0,31.5,27.61,16.6v-2.31l0-1.21V84.75A8.37,8.37,0,0,0,302.87,77.45Z"/><polyline fill="#8bd346" points="247.47 118.15 247.47 178.56 275.44 194.82 307.09 176.24 307.09 115.77"/><polygon fill="#72b22f" points="275.44 133.87 275.44 194.82 307.09 176.79 307.09 115.77 275.44 133.87"/><polygon fill="#375613" points="247.47 118.15 279.34 99.75 307.09 115.77 275.44 133.87 247.47 118.15"/><path fill="#375613" d="M255.31,129.67l12.37,7.06a4.38,4.38,0,0,1,2.21,3.81v3.27a3,3,0,0,1-4.54,2.66L253,139.58a4.46,4.46,0,0,1-2.28-3.89v-3.37A3.05,3.05,0,0,1,255.31,129.67Z"/><polyline fill="#365949" points="120.92 148.82 147.53 134.32 147.8 94.84 142.57 71.99 112.19 88.35 105.7 103.02 105.7 140.06 120.34 148.49"/><polygon points="105.7 103.02 120.92 112.59 120.92 148.82 105.54 140.06 105.7 103.02" opacity=".61"/><polygon points="120.92 112.59 112.19 88.35 105.7 103.02 120.92 112.59" opacity=".61"/><polygon fill="#fff" points="126.75 113.8 143.59 104.25 143.59 127.8 126.75 137.68 126.75 113.8"/><path fill="#eca016" d="M75.53,186.22V156L48.44,140.82v30Z"/><path fill="#ffb72f" d="M75.53,156l26.36-15.13s.73,30.51,0,31-26.36,14.4-26.36,14.4Z"/><polygon fill="#e08d07" points="101.89 140.82 75.53 124.71 48.44 140.82 75.53 155.95 101.89 140.82"/><polygon fill="#ffb72f" points="48.44 140.82 38.65 123.83 66.4 107.51 75.53 124.71 48.44 140.82"/><polygon fill="#eca016" points="101.89 140.82 109.04 125.55 79.88 141.43 75.53 155.95 101.89 140.82"/><polygon fill="#1e2d09" points="247.47 118.15 279.34 99.75 279.34 131.64 275.44 133.87 247.47 118.15"/><path fill="#eca016" d="M212.39,108.33l7.31-19.66L205.75,72.3,198.5,91.8Z"/><path fill="#ffb72f" d="M219.69,88.67l20.78-3.47s-6.89,20-7.48,20.14-20.6,3-20.6,3Z"/><polygon fill="#ffc863" points="240.47 85.2 227.24 68.37 205.75 72.3 219.69 88.67 240.47 85.2"/><polygon fill="#fdedcb" points="235.43 78.79 213.97 81.95 210.16 92.21 205.99 87.72 209.91 77.18 231.47 73.75 235.43 78.79"/><path fill="#ed8560" d="M321.75,134.7s-1.51,3.63,1.34,5.62c.38.27-.13,2-.2,2.34a90.16,90.16,0,0,1-3.78,12.91c-1.44,4-3.21,8-3.49,12.34-.22,3.37-.33,6.75-.41,10.13-.15,6.57-.15,13.14-.09,19.71q0,2.32.06,4.65s1,5.34,10.54,6S337,201.57,337,201.57c.11-3.68.17-7.36.22-11,.08-6.71.12-13.44-.15-20.15-.12-3.08.07-3.19-.65-6.19a25.71,25.71,0,0,0-1-3.44c-.64-2.13-3.31-12.5-3.48-14.71-.15-2-.29-4.08-.39-6.13,0,0,2.53-1.52.88-5.22"/><ellipse cx="327.09" cy="134.7" fill="#67412e" rx="5.34" ry="2.67"/><path fill="#fefefe" d="M318.25,169.09v16c0,2.5,3.89,2.51,3.89,0v-16C322.14,166.59,318.25,166.59,318.25,169.09Z"/><path fill="#fefefe" d="M320.44,188.54c-2.5,0-2.51,3.89,0,3.89S322.94,188.54,320.44,188.54Z"/><path fill="#ed8560" d="M299.9,168.28s-.94,2.27.84,3.51c.24.17-.08,1.26-.12,1.46a56.33,56.33,0,0,1-2.36,8.06c-.9,2.51-2,5-2.18,7.71-.14,2.11-.21,4.22-.25,6.33-.09,4.1-.09,8.21-.06,12.32q0,1.45,0,2.9s.61,3.33,6.58,3.77,7-4.3,7-4.3c.07-2.3.11-4.6.14-6.9.05-4.19.08-8.4-.09-12.59a13.49,13.49,0,0,0-.4-3.86,16.06,16.06,0,0,0-.6-2.15c-.4-1.33-2.07-7.81-2.17-9.19s-.18-2.55-.24-3.83c0,0,1.58-.95.55-3.26"/><ellipse cx="303.23" cy="168.28" fill="#67412e" rx="3.33" ry="1.67"/><path fill="#fefefe" d="M297.71,189.76v10a1.21,1.21,0,0,0,2.43,0v-10A1.21,1.21,0,0,0,297.71,189.76Z"/><path fill="#fefefe" d="M299.07,201.91a1.21,1.21,0,0,0,0,2.43A1.21,1.21,0,0,0,299.07,201.91Z"/><path fill="#ff8f6f" d="M189.44,83.15a32.85,32.85,0,0,0-9.56,14c-3.36,9.28,5,24.44,5,24.44L198,111.29"/><path fill="#003b94" d="M188,205.83l-3.55-2,.89-5.06s5.28.5,5.74,2.38"/><path fill="#365949" d="M189.34,205.76c.8-.49,1.63-.92,2.45-1.37,2.05-1.12,5-2.28,6.27-4.39a2.45,2.45,0,0,0-.16-2.75c-1.87-2.25-5.92,1.45-8-1-.41-.49-.6-8.3-.6-8.3L181.39,190s-1.34,15.68-1.19,16.65,2.87,1.9,2.87,1.9a7,7,0,0,0,2.28-.89c.83-.6.08-8,1.13-6.93s1.52,5.06,1.52,5.06A5.43,5.43,0,0,0,189.34,205.76Z"/><path fill="#003b94" d="M203.13,213.41l-3.55-2,.89-5.06s5.28.5,5.74,2.38"/><path fill="#365949" d="M204.47,213.34c.8-.49,1.63-.92,2.45-1.37,2.05-1.12,5-2.28,6.27-4.39a2.45,2.45,0,0,0-.16-2.75c-1.87-2.25-5.92,1.45-8-1-.41-.49-.6-8.3-.6-8.3l-7.91,2.13s-1.34,15.68-1.19,16.65,2.87,1.9,2.87,1.9a7,7,0,0,0,2.28-.89c.83-.6.08-8,1.13-6.93s1.52,5.06,1.52,5.06A5.43,5.43,0,0,0,204.47,213.34Z"/><path fill="#ee6300" d="M177.37,162.43l-2.29,31.15s3.7,5.12,16.15,2.27h0l.12-21"/><path fill="#ee6300" d="M191.79,168.6c-.27,2.69,0,32.27,0,32.27s3.44,6.44,18.43,0L210,175.73"/><path fill="#ee6300" d="M176.21,172.72c1,.7,1.37-2.92,2.44-2.3a60.72,60.72,0,0,0,12.29,5.42l.09,0a.84.84,0,0,1,1.14.42,64.91,64.91,0,0,0,8.06,1.83c3.5.56,6.4-2,10-2.21,0-13.75.07-52.93-5.79-61.21l-17.31-5.79c-.08,1.43-8.41,11.08-8.21,22.84.23,13.26-1.5,25.77-1.79,29.91C177.07,162.33,176.25,172,176.21,172.72Z"/><path fill="#ff8f6f" d="M206,98.85l-1.6,15.78s-12.92.52-18.5-3.33V97.92"/><path fill="#ffb5a9" d="M228,84.23,226.7,86a43.3,43.3,0,0,0,1.86-4.5c.37-1.05-1.31-1.47-1.68-.42l-.19.53q.24-.83.45-1.68a.86.86,0,0,0-1.68-.42,45,45,0,0,1-1.31,4.31,30.74,30.74,0,0,0,.62-3.81c.11-1.1-1.62-1.06-1.73,0a27.4,27.4,0,0,1-.78,4.32q0-.74-.14-1.48a.87.87,0,0,0-.36-.62c0-.19-.1-.38-.17-.58a.87.87,0,0,0-1.69.26l-.11,6.53a7.77,7.77,0,0,1-1.21,1.86A30.16,30.16,0,0,1,221,92.24a24.86,24.86,0,0,1,2,1.89q.83-1,1.61-2.12a.94.94,0,0,0,.17-.18q2.32-3.43,4.79-6.75C230.19,84.19,228.68,83.34,228,84.23Z"/><path fill="#ff8f6f" d="M200.62,81.36s6.1,1.65,8.58,5.6a69.81,69.81,0,0,1,4.09,8.44l4.51-7s5.47,1.68,7.65,4.37c0,0-6.5,14.2-12.15,15.41s-11.66-8.41-11.66-8.41-1.24,4-1-.27"/><path fill="#007f68" d="M204.14,99.78a12.37,12.37,0,0,1-2.24-6.35c0-2.6,1.44-4.46,2.89-6.47a22.58,22.58,0,0,0,3.48-6.51c.73-2.32,1.11-4.73,1.61-7.11A.7.7,0,0,1,210,73c0-2.85-1-5.54-4.13-6.7-8-3-11,6-12,9.68s-1.28,6.33-4.44,7.11-6.26,4.29-4.58,8.29S184.55,93.6,182,96s-3.12,6.19.07,8.5,20.41,4.47,22.36,3.36a3.28,3.28,0,0,0,1.4-2A9,9,0,0,0,204.14,99.78Z"/></svg>